<svg width="606" height="606" viewBox="0 0 606 606" fill="none" xmlns="http://www.w3.org/2000/svg">
<circle cx="298" cy="326" r="280" fill="#F1F3FF"/>
<path d="M459.916 163.51C459.916 165.99 460.185 168.001 460.654 169.476C461.19 170.951 461.86 172.559 462.799 174.302C463.134 174.838 463.268 175.375 463.268 175.844C463.268 176.514 462.866 177.185 461.995 177.855L457.771 180.67C457.168 181.072 456.565 181.274 456.029 181.274C455.358 181.274 454.688 180.938 454.018 180.335C453.079 179.33 452.275 178.257 451.604 177.185C450.934 176.045 450.264 174.771 449.526 173.23C444.298 179.397 437.729 182.48 429.819 182.48C424.188 182.48 419.697 180.871 416.412 177.654C413.127 174.436 411.452 170.146 411.452 164.783C411.452 159.086 413.463 154.46 417.552 150.975C421.641 147.489 427.07 145.746 433.975 145.746C436.254 145.746 438.6 145.947 441.08 146.282C443.56 146.618 446.108 147.154 448.789 147.757V142.864C448.789 137.769 447.716 134.216 445.638 132.138C443.493 130.06 439.874 129.055 434.712 129.055C432.366 129.055 429.953 129.323 427.473 129.926C424.992 130.53 422.579 131.267 420.233 132.205C419.16 132.675 418.356 132.943 417.887 133.077C417.418 133.211 417.082 133.278 416.814 133.278C415.876 133.278 415.407 132.608 415.407 131.2V127.915C415.407 126.843 415.541 126.038 415.876 125.569C416.211 125.1 416.814 124.631 417.753 124.161C420.099 122.955 422.914 121.949 426.199 121.145C429.484 120.274 432.969 119.871 436.656 119.871C444.633 119.871 450.465 121.681 454.219 125.301C457.906 128.921 459.782 134.418 459.782 141.791V163.51H459.916ZM432.701 173.699C434.913 173.699 437.192 173.297 439.606 172.492C442.019 171.688 444.164 170.213 445.974 168.202C447.046 166.929 447.851 165.521 448.253 163.912C448.655 162.303 448.923 160.359 448.923 158.08V155.265C446.979 154.796 444.901 154.393 442.756 154.125C440.611 153.857 438.533 153.723 436.455 153.723C431.964 153.723 428.679 154.594 426.467 156.404C424.255 158.214 423.182 160.761 423.182 164.113C423.182 167.264 423.987 169.61 425.663 171.219C427.271 172.894 429.618 173.699 432.701 173.699ZM486.529 180.938C485.322 180.938 484.518 180.737 483.981 180.268C483.445 179.866 482.976 178.927 482.574 177.654L466.821 125.837C466.419 124.497 466.218 123.625 466.218 123.156C466.218 122.083 466.754 121.48 467.826 121.48H474.396C475.669 121.48 476.541 121.681 477.01 122.15C477.546 122.553 477.948 123.491 478.351 124.765L489.612 169.141L500.069 124.765C500.404 123.424 500.807 122.553 501.343 122.15C501.879 121.748 502.818 121.48 504.024 121.48H509.387C510.66 121.48 511.532 121.681 512.068 122.15C512.604 122.553 513.074 123.491 513.342 124.765L523.933 169.677L535.53 124.765C535.932 123.424 536.401 122.553 536.87 122.15C537.407 121.748 538.278 121.48 539.485 121.48H545.719C546.791 121.48 547.395 122.016 547.395 123.156C547.395 123.491 547.327 123.826 547.26 124.229C547.193 124.631 547.059 125.167 546.791 125.904L530.636 177.721C530.234 179.061 529.765 179.933 529.229 180.335C528.692 180.737 527.821 181.005 526.681 181.005H520.916C519.643 181.005 518.771 180.804 518.235 180.335C517.699 179.866 517.23 178.994 516.962 177.654L506.571 134.418L496.248 177.587C495.913 178.927 495.511 179.799 494.975 180.268C494.438 180.737 493.5 180.938 492.293 180.938H486.529ZM572.666 182.748C569.18 182.748 565.695 182.346 562.343 181.542C558.991 180.737 556.377 179.866 554.634 178.86C553.562 178.257 552.824 177.587 552.556 176.983C552.288 176.38 552.154 175.71 552.154 175.107V171.688C552.154 170.28 552.69 169.61 553.696 169.61C554.098 169.61 554.5 169.677 554.902 169.811C555.304 169.945 555.908 170.213 556.578 170.481C558.857 171.487 561.337 172.291 563.952 172.827C566.633 173.364 569.247 173.632 571.929 173.632C576.152 173.632 579.436 172.894 581.715 171.42C583.995 169.945 585.201 167.8 585.201 165.052C585.201 163.175 584.598 161.633 583.391 160.359C582.185 159.086 579.905 157.946 576.621 156.874L566.901 153.857C562.008 152.315 558.388 150.036 556.176 147.02C553.964 144.07 552.824 140.786 552.824 137.3C552.824 134.485 553.427 132.004 554.634 129.859C555.841 127.714 557.449 125.837 559.46 124.363C561.471 122.821 563.751 121.681 566.432 120.877C569.113 120.072 571.929 119.737 574.878 119.737C576.353 119.737 577.895 119.804 579.369 120.005C580.911 120.207 582.319 120.475 583.726 120.743C585.067 121.078 586.341 121.413 587.547 121.815C588.754 122.218 589.692 122.62 590.363 123.022C591.301 123.558 591.971 124.094 592.374 124.698C592.776 125.234 592.977 125.971 592.977 126.91V130.06C592.977 131.468 592.441 132.205 591.435 132.205C590.899 132.205 590.027 131.937 588.888 131.401C585.067 129.658 580.777 128.787 576.018 128.787C572.197 128.787 569.18 129.39 567.102 130.664C565.024 131.937 563.952 133.881 563.952 136.63C563.952 138.507 564.622 140.115 565.963 141.389C567.303 142.663 569.784 143.936 573.336 145.076L582.855 148.092C587.681 149.634 591.167 151.779 593.245 154.527C595.323 157.276 596.329 160.426 596.329 163.912C596.329 166.794 595.725 169.409 594.586 171.688C593.379 173.967 591.77 175.978 589.692 177.587C587.614 179.263 585.134 180.469 582.252 181.341C579.235 182.279 576.085 182.748 572.666 182.748Z" fill="#252F3E"/>
<path fill-rule="evenodd" clip-rule="evenodd" d="M585.335 215.326C563.281 231.615 531.24 240.263 503.689 240.263C465.078 240.263 430.288 225.985 404.011 202.255C401.933 200.378 403.81 197.831 406.29 199.305C434.712 215.796 469.77 225.783 506.035 225.783C530.502 225.783 557.382 220.689 582.118 210.232C585.804 208.556 588.955 212.645 585.335 215.326Z" fill="#FF9900"/>
<path fill-rule="evenodd" clip-rule="evenodd" d="M594.519 204.869C591.703 201.249 575.883 203.126 568.711 203.998C566.566 204.266 566.231 202.389 568.175 200.981C580.777 192.133 601.49 194.68 603.903 197.63C606.316 200.646 603.233 221.359 591.435 231.28C589.625 232.822 587.882 232.018 588.687 230.007C591.368 223.37 597.334 208.422 594.519 204.869Z" fill="#FF9900"/>
<g clip-path="url(#clip0_33_49)">
<path d="M297.974 339.779C305.603 339.779 311.788 333.594 311.788 325.965C311.788 318.337 305.603 312.152 297.974 312.152C290.345 312.152 284.161 318.337 284.161 325.965C284.161 333.594 290.345 339.779 297.974 339.779Z" fill="#087EA4"/>
<path d="M297.974 357.046C336.119 357.046 367.042 343.131 367.042 325.965C367.042 308.8 336.119 294.885 297.974 294.885C259.829 294.885 228.907 308.8 228.907 325.965C228.907 343.131 259.829 357.046 297.974 357.046Z" stroke="#087EA4" stroke-width="8"/>
<path d="M271.058 341.506C290.13 374.54 317.643 394.362 332.508 385.78C347.374 377.197 343.963 343.46 324.891 310.425C305.818 277.391 278.306 257.569 263.441 266.151C248.575 274.734 251.985 308.471 271.058 341.506Z" stroke="#087EA4" stroke-width="8"/>
<path d="M271.058 310.425C251.985 343.46 248.575 377.197 263.441 385.78C278.306 394.362 305.818 374.54 324.891 341.506C343.963 308.471 347.374 274.734 332.508 266.151C317.643 257.569 290.13 277.391 271.058 310.425Z" stroke="#087EA4" stroke-width="8"/>
</g>
<path d="M166.449 538.428C157.371 543.16 110.343 562.496 100.331 567.715C90.3187 572.936 84.7567 572.885 76.8476 569.104C68.9386 565.323 18.8923 545.108 9.87724 540.799C5.37121 538.645 3.0022 536.828 3.0022 535.111V517.916C3.0022 517.916 68.1556 503.732 78.6747 499.959C89.1927 496.185 92.8418 496.049 101.793 499.328C110.745 502.607 164.267 512.264 173.114 515.504C173.114 515.504 173.11 530.861 173.11 532.455C173.111 534.155 171.07 536.02 166.449 538.428Z" fill="#A41E11"/>
<path d="M166.449 521.228C157.371 525.958 110.343 545.296 100.331 550.515C90.3187 555.736 84.7566 555.685 76.8476 551.904C68.9375 548.125 18.8922 527.906 9.87718 523.599C0.862128 519.29 0.67312 516.324 9.52917 512.857C18.3842 509.388 68.1555 489.86 78.6756 486.086C89.1937 482.314 92.8427 482.176 101.794 485.456C110.746 488.735 157.493 507.343 166.339 510.583C175.187 513.826 175.527 516.496 166.449 521.228Z" fill="#D82C20"/>
<path d="M166.449 510.388C157.371 515.12 110.343 534.456 100.331 539.677C90.3187 544.896 84.7567 544.845 76.8476 541.064C68.9376 537.285 18.8923 517.068 9.87724 512.759C5.37121 510.605 3.0022 508.79 3.0022 507.073V489.875C3.0022 489.875 68.1556 475.692 78.6747 471.918C89.1927 468.145 92.8418 468.008 101.793 471.287C110.745 474.566 164.267 484.221 173.114 487.462C173.114 487.462 173.11 502.82 173.11 504.416C173.111 506.115 171.07 507.98 166.449 510.388Z" fill="#A41E11"/>
<path d="M166.449 493.187C157.371 497.919 110.343 517.256 100.331 522.477C90.3187 527.696 84.7566 527.645 76.8476 523.864C68.9375 520.085 18.8922 499.866 9.87718 495.558C0.862128 491.25 0.67312 488.284 9.52917 484.815C18.3842 481.348 68.1555 461.82 78.6756 458.047C89.1937 454.274 92.8427 454.137 101.794 457.416C110.746 460.695 157.493 479.301 166.339 482.542C175.187 485.784 175.527 488.455 166.449 493.187Z" fill="#D82C20"/>
<path d="M166.449 481.307C157.371 486.039 110.343 505.377 100.331 510.598C90.3187 515.817 84.7567 515.766 76.8476 511.985C68.9376 508.206 18.8923 487.987 9.87724 483.679C5.37121 481.525 3.0022 479.709 3.0022 477.993V460.796C3.0022 460.796 68.1556 446.613 78.6747 442.84C89.1927 439.066 92.8418 438.93 101.793 442.209C110.745 445.488 164.267 455.143 173.114 458.384C173.114 458.384 173.11 473.741 173.11 475.336C173.111 477.034 171.07 478.899 166.449 481.307Z" fill="#A41E11"/>
<path d="M166.449 464.107C157.371 468.839 110.343 488.176 100.331 493.396C90.3187 498.615 84.7566 498.564 76.8476 494.784C68.9385 491.004 18.8922 470.787 9.87718 466.479C0.862128 462.171 0.67312 459.204 9.52917 455.736C18.3842 452.268 68.1555 432.742 78.6756 428.968C89.1937 425.194 92.8427 425.058 101.794 428.338C110.746 431.617 157.493 450.223 166.339 453.464C175.187 456.704 175.527 459.376 166.449 464.107Z" fill="#D82C20"/>
<path d="M110.349 447.547L95.6085 449.077L92.3085 457.017L86.9785 448.157L69.9585 446.627L82.6585 442.047L78.8485 435.017L90.7385 439.667L101.948 435.997L98.9185 443.267L110.349 447.547Z" fill="white"/>
<path d="M91.4285 486.067L63.9185 474.657L103.338 468.607L91.4285 486.067Z" fill="white"/>
<path d="M53.2882 468.294C64.9243 468.294 74.3572 464.638 74.3572 460.127C74.3572 455.617 64.9243 451.96 53.2882 451.96C41.6522 451.96 32.2192 455.617 32.2192 460.127C32.2192 464.638 41.6522 468.294 53.2882 468.294Z" fill="white"/>
<path d="M127.769 449.717L151.099 458.937L127.789 468.147L127.769 449.717Z" fill="#7A0C00"/>
<path d="M101.959 459.927L127.769 449.717L127.789 468.147L125.259 469.137L101.959 459.927Z" fill="#AD2115"/>
<path d="M135.72 171.169C132.603 168.998 125.447 168.197 119.856 169.277C119.201 163.867 116.217 159.125 111.014 154.928L108.019 152.757L105.932 155.874C103.222 160.443 101.998 165.741 102.427 171.035C102.651 173.969 103.588 176.805 105.156 179.295C101.908 180.979 98.2863 181.813 94.6286 181.72H0.620045L0.365355 182.8C-0.544287 188.209 -0.544287 205.129 10.0682 218.118C18.1337 228.003 30.0924 233 45.8232 233C79.8923 233 105.12 216.627 116.945 186.984C121.627 187.118 131.633 186.984 136.715 176.833C136.848 176.566 137.103 176.02 138.012 173.995L138.534 172.915L135.672 171.156L135.72 171.169ZM75.7686 133H61.4691V146.535H75.7686V133ZM75.7686 149.24H61.4691V162.776H75.7686V149.24ZM58.8614 149.24H44.5619V162.776H58.8614V149.24ZM41.9542 149.24H27.6668V162.776H41.9663V149.24H41.9542ZM25.047 165.48H10.7595V179.016H25.0591V165.48H25.047ZM41.9542 165.48H27.6668V179.016H41.9663V165.48H41.9542ZM58.8614 165.48H44.5619V179.016H58.8614V165.48ZM75.7686 165.48H61.4691V179.016H75.7686V165.48ZM92.6759 165.48H78.3763V179.016H92.6759V165.48Z" fill="#2496ED"/>
<path fill-rule="evenodd" clip-rule="evenodd" d="M493.758 446C492.742 446 491.798 446.218 490.927 446.508C492.778 447.742 493.794 449.376 494.303 451.227C494.339 451.481 494.411 451.662 494.448 451.916C494.484 452.134 494.52 452.352 494.52 452.57C494.666 455.764 493.685 456.163 492.996 458.051C491.943 460.483 492.234 463.096 493.504 465.201C493.613 465.455 493.758 465.746 493.94 466C492.56 456.817 500.219 455.437 501.635 452.57C501.744 450.065 499.675 448.396 498.041 447.234C496.48 446.29 495.065 446 493.758 446ZM505.301 448.069C505.155 448.904 505.264 448.686 505.228 449.122C505.192 449.412 505.192 449.775 505.156 450.065C505.083 450.356 505.01 450.646 504.902 450.936C504.829 451.227 504.72 451.517 504.611 451.808C504.466 452.098 504.357 452.352 504.212 452.642C504.103 452.788 504.03 452.933 503.921 453.078C503.849 453.187 503.776 453.296 503.704 453.405C503.522 453.659 503.341 453.913 503.159 454.131C502.941 454.348 502.76 454.603 502.506 454.784V454.82C502.288 455.002 502.07 455.22 501.816 455.401C501.054 455.982 500.183 456.417 499.384 456.962C499.13 457.143 498.876 457.289 498.658 457.506C498.404 457.688 498.186 457.869 497.969 458.087C497.715 458.305 497.533 458.523 497.315 458.777C497.134 458.995 496.916 459.249 496.771 459.503C496.589 459.757 496.408 460.011 496.263 460.265C496.117 460.555 496.009 460.809 495.863 461.1C495.755 461.39 495.646 461.644 495.573 461.935C495.464 462.261 495.392 462.552 495.319 462.842C495.283 462.987 495.283 463.169 495.246 463.314C495.21 463.459 495.21 463.604 495.174 463.75C495.174 464.04 495.138 464.367 495.138 464.657C495.138 464.875 495.138 465.093 495.174 465.31C495.174 465.601 495.21 465.891 495.283 466.218C495.319 466.508 495.392 466.799 495.464 467.089C495.573 467.379 495.646 467.67 495.755 467.96C495.827 468.142 495.936 468.323 496.009 468.468L487.66 465.238C486.245 464.838 484.865 464.476 483.45 464.149C482.688 463.967 481.925 463.786 481.163 463.604C478.985 463.169 476.771 462.842 474.557 462.624C474.484 462.624 474.448 462.588 474.375 462.588C472.198 462.37 470.056 462.261 467.878 462.261C466.281 462.261 464.684 462.334 463.123 462.443C460.909 462.588 458.695 462.878 456.481 463.241C455.936 463.314 455.392 463.423 454.847 463.532C453.722 463.75 452.633 464.004 451.581 464.258C451.036 464.403 450.492 464.548 449.947 464.693C449.403 464.911 448.895 465.165 448.386 465.383C447.987 465.564 447.588 465.746 447.189 465.927C447.116 465.964 447.043 465.964 447.007 466C446.644 466.181 446.317 466.327 445.991 466.508C445.882 466.544 445.809 466.581 445.737 466.617C445.337 466.798 444.938 467.016 444.611 467.198C444.357 467.307 444.103 467.452 443.885 467.561C443.777 467.633 443.631 467.706 443.559 467.742C443.232 467.924 442.905 468.105 442.615 468.287C442.288 468.468 441.998 468.65 441.744 468.831C441.49 469.013 441.236 469.158 441.018 469.339C440.982 469.376 440.945 469.376 440.909 469.412C440.691 469.557 440.437 469.738 440.219 469.92C440.219 469.92 440.183 469.956 440.147 469.993C439.965 470.138 439.784 470.283 439.602 470.428C439.53 470.464 439.457 470.537 439.385 470.573C439.203 470.719 439.022 470.9 438.84 471.045C438.804 471.118 438.731 471.154 438.695 471.19C438.477 471.408 438.259 471.59 438.042 471.808C438.005 471.808 438.005 471.844 437.969 471.88C437.751 472.062 437.533 472.279 437.316 472.497C437.279 472.533 437.279 472.57 437.243 472.57C437.062 472.751 436.88 472.933 436.699 473.15C436.626 473.223 436.517 473.296 436.445 473.368C436.263 473.586 436.045 473.804 435.828 474.022C435.791 474.094 435.719 474.13 435.682 474.203C435.392 474.493 435.138 474.784 434.847 475.074C434.811 475.111 434.775 475.147 434.739 475.183C434.158 475.8 433.541 476.417 432.887 476.962C432.234 477.542 431.544 478.087 430.855 478.559C430.129 479.067 429.439 479.502 428.677 479.938C427.951 480.337 427.189 480.7 426.39 481.027C425.628 481.354 424.829 481.644 424.031 481.898C422.506 482.225 420.946 482.842 419.603 482.951C419.312 482.951 418.985 483.023 418.695 483.06C418.368 483.132 418.078 483.205 417.788 483.277C417.497 483.386 417.207 483.495 416.916 483.604C416.626 483.713 416.336 483.858 416.045 484.003C415.791 484.185 415.501 484.33 415.247 484.512C414.993 484.693 414.739 484.911 414.521 485.129C414.267 485.31 414.013 485.564 413.795 485.782C413.577 486.036 413.359 486.254 413.178 486.508C412.996 486.798 412.779 487.052 412.633 487.343C412.452 487.597 412.27 487.887 412.125 488.178C411.98 488.504 411.835 488.795 411.726 489.121C411.617 489.412 411.508 489.738 411.399 490.065C411.327 490.355 411.254 490.646 411.218 490.936C411.218 490.973 411.181 491.009 411.181 491.045C411.109 491.372 411.109 491.807 411.073 492.025C411.036 492.279 411 492.497 411 492.751C411 492.896 411 493.078 411.036 493.223C411.073 493.477 411.109 493.695 411.182 493.913C411.254 494.13 411.327 494.348 411.436 494.566V494.602C411.545 494.82 411.69 495.038 411.835 495.256C411.98 495.474 412.125 495.691 412.307 495.909C412.488 496.091 412.706 496.308 412.924 496.49C413.142 496.708 413.359 496.889 413.614 497.071C414.485 497.833 414.702 498.087 415.828 498.668C416.009 498.777 416.191 498.849 416.408 498.958C416.445 498.958 416.481 498.994 416.517 498.994C416.517 499.067 416.517 499.103 416.554 499.176C416.59 499.466 416.663 499.757 416.735 500.047C416.808 500.374 416.917 500.664 417.026 500.918C417.134 501.136 417.207 501.354 417.316 501.572C417.352 501.644 417.388 501.717 417.425 501.753C417.57 502.043 417.715 502.298 417.86 502.552C418.042 502.806 418.223 503.06 418.405 503.314C418.586 503.532 418.804 503.786 419.022 504.003C419.24 504.221 419.457 504.403 419.712 504.621C419.712 504.621 419.748 504.657 419.784 504.657C420.002 504.838 420.22 505.02 420.437 505.165C420.692 505.347 420.946 505.492 421.236 505.637C421.49 505.782 421.78 505.927 422.071 506.036C422.289 506.145 422.543 506.218 422.797 506.29C422.833 506.327 422.869 506.327 422.942 506.363C423.087 506.399 423.269 506.435 423.414 506.472C423.305 508.432 423.269 510.283 423.559 510.936C423.886 511.662 425.483 509.448 427.08 506.907C426.862 509.412 426.717 512.352 427.08 513.223C427.479 514.131 429.657 511.299 431.545 508.178C457.28 502.225 480.764 520.011 483.232 545.129C482.76 541.208 477.933 539.031 475.719 539.575C474.63 542.261 472.779 545.709 469.802 547.851C470.056 545.455 469.947 542.987 469.439 540.591C468.641 543.931 467.08 547.052 464.938 549.738C461.49 549.993 458.042 548.323 456.227 545.818C456.082 545.709 456.045 545.492 455.937 545.346C455.828 545.092 455.719 544.838 455.646 544.584C455.537 544.33 455.465 544.076 455.428 543.822C455.392 543.568 455.392 543.314 455.392 543.023C455.392 542.842 455.392 542.66 455.392 542.479C455.428 542.225 455.501 541.971 455.574 541.717C455.646 541.463 455.719 541.209 455.828 540.954C455.973 540.7 456.082 540.446 456.263 540.192C456.88 538.45 456.88 537.034 455.755 536.199C455.537 536.054 455.319 535.945 455.065 535.836C454.92 535.8 454.739 535.728 454.593 535.691C454.485 535.655 454.412 535.619 454.303 535.582C454.049 535.51 453.795 535.437 453.541 535.401C453.287 535.328 453.033 535.292 452.779 535.292C452.525 535.256 452.234 535.219 451.98 535.219C451.799 535.219 451.617 535.256 451.436 535.256C451.145 535.256 450.891 535.292 450.637 535.365C450.383 535.401 450.129 535.437 449.875 535.51C449.621 535.582 449.367 535.655 449.113 535.764C448.858 535.873 448.641 535.982 448.387 536.091C448.169 536.2 447.951 536.345 447.697 536.454C439.24 541.971 444.285 554.893 450.056 558.631C447.878 559.031 445.664 559.503 445.047 559.974C445.011 560.011 444.975 560.047 444.975 560.047C446.535 560.991 448.169 561.789 449.875 562.479C452.198 563.241 454.666 563.931 455.755 564.221V564.258C458.768 564.875 461.817 565.092 464.902 564.911C480.982 563.786 494.158 551.553 496.553 535.437C496.626 535.764 496.699 536.054 496.771 536.381C496.88 537.034 497.025 537.724 497.098 538.414V538.45C497.17 538.777 497.207 539.103 497.243 539.394V539.539C497.28 539.866 497.316 540.192 497.316 540.483C497.352 540.882 497.388 541.281 497.388 541.681V542.261C497.388 542.443 497.425 542.661 497.425 542.842C497.425 543.06 497.388 543.278 497.388 543.495V544.004C497.388 544.258 497.352 544.476 497.352 544.73C497.352 544.875 497.352 545.02 497.316 545.201C497.316 545.456 497.279 545.71 497.279 546C497.243 546.109 497.243 546.218 497.243 546.327C497.206 546.617 497.17 546.871 497.134 547.162C497.134 547.27 497.134 547.379 497.098 547.488C497.061 547.851 496.989 548.178 496.952 548.541V548.577V548.614C496.88 548.94 496.807 549.303 496.735 549.63V549.739C496.662 550.065 496.589 550.392 496.517 550.719C496.517 550.755 496.48 550.828 496.48 550.864C496.408 551.191 496.335 551.517 496.226 551.844V551.953C496.117 552.316 496.009 552.643 495.936 552.969C495.9 553.006 495.9 553.042 495.9 553.042C495.791 553.405 495.682 553.768 495.573 554.131C495.428 554.494 495.319 554.82 495.174 555.183C495.028 555.546 494.92 555.909 494.774 556.236C494.629 556.599 494.484 556.926 494.339 557.289H494.302C494.157 557.615 494.012 557.978 493.831 558.305C493.794 558.414 493.758 558.487 493.722 558.559C493.685 558.595 493.685 558.632 493.649 558.668C491.29 563.423 487.805 567.597 483.45 570.864C483.159 571.045 482.869 571.263 482.578 571.481C482.506 571.554 482.397 571.59 482.324 571.663C482.07 571.844 481.816 572.025 481.526 572.207L481.635 572.425H481.671C482.179 572.352 482.687 572.28 483.196 572.207H483.232C484.176 572.062 485.119 571.88 486.063 571.699C486.317 571.662 486.608 571.59 486.862 571.517C487.043 571.481 487.188 571.445 487.37 571.408C487.624 571.372 487.878 571.3 488.132 571.263C488.35 571.191 488.568 571.154 488.785 571.082C492.415 570.211 495.936 569.013 499.312 567.597C493.54 575.474 485.809 581.826 476.771 586C480.945 585.71 485.119 585.02 489.148 583.858C503.776 579.539 516.081 569.702 523.45 556.454C521.961 564.839 518.622 572.824 513.685 579.793C517.206 577.47 520.437 574.784 523.377 571.735C531.508 563.241 536.843 552.461 538.658 540.882C539.892 546.617 540.255 552.534 539.711 558.378C565.918 521.826 541.889 483.931 531.834 473.949C531.798 473.877 531.762 473.841 531.762 473.768C531.725 473.804 531.725 473.804 531.725 473.84C531.725 473.804 531.725 473.804 531.689 473.768C531.689 474.203 531.653 474.639 531.616 475.075C531.508 475.909 531.399 476.708 531.253 477.507C531.072 478.305 530.854 479.104 530.636 479.902C530.382 480.664 530.092 481.463 529.765 482.225C529.439 482.951 529.076 483.713 528.676 484.439C528.277 485.129 527.841 485.855 527.37 486.508C526.898 487.198 526.39 487.851 525.881 488.468C525.337 489.122 524.756 489.703 524.175 490.283C523.812 490.61 523.486 490.9 523.123 491.191C522.832 491.445 522.578 491.663 522.288 491.917C521.635 492.425 520.981 492.897 520.255 493.332C519.566 493.768 518.84 494.203 518.114 494.566C517.352 494.929 516.589 495.256 515.827 495.583C515.065 495.873 514.266 496.127 513.468 496.345C512.669 496.563 511.834 496.744 511.036 496.889C510.201 497.035 509.366 497.107 508.568 497.18C507.987 497.216 507.406 497.252 506.825 497.252C505.99 497.252 505.156 497.18 504.357 497.107C503.522 497.035 502.687 496.926 501.889 496.744C501.054 496.599 500.255 496.381 499.457 496.127H499.42C500.219 496.055 501.018 495.982 501.816 495.837C502.651 495.691 503.449 495.51 504.248 495.292C505.047 495.074 505.845 494.82 506.607 494.53C507.406 494.24 508.168 493.877 508.894 493.514C509.656 493.151 510.346 492.751 511.072 492.316C511.762 491.844 512.451 491.372 513.105 490.864C513.758 490.356 514.375 489.811 514.956 489.231C515.573 488.686 516.117 488.069 516.662 487.452C517.206 486.799 517.714 486.145 518.186 485.492C518.259 485.383 518.332 485.238 518.404 485.129C518.767 484.548 519.13 483.967 519.457 483.387C519.856 482.661 520.219 481.935 520.546 481.173C520.872 480.41 521.163 479.648 521.417 478.849C521.671 478.087 521.852 477.289 522.034 476.49C522.179 475.655 522.324 474.857 522.397 474.058C522.469 473.223 522.542 472.388 522.542 471.59C522.542 471.009 522.506 470.428 522.47 469.848C522.397 469.013 522.288 468.214 522.179 467.416C522.034 466.581 521.852 465.782 521.635 464.984C521.381 464.222 521.127 463.423 520.836 462.661C520.546 461.898 520.183 461.136 519.82 460.41C519.421 459.684 519.021 458.958 518.586 458.269C518.114 457.579 517.642 456.926 517.134 456.272C516.589 455.655 516.045 455.038 515.464 454.421C515.174 454.131 514.847 453.804 514.52 453.514C512.887 452.243 511.181 451.046 509.475 449.957C509.221 449.811 509.003 449.703 508.749 449.594C507.551 448.831 506.426 448.432 505.301 448.069Z" fill="#EA2845"/>
<path d="M323.166 37.1366C324.325 37.1366 325.436 37.5954 326.258 38.4127C327.079 39.2301 327.543 40.3393 327.549 41.498V87.1419C327.549 89.5454 325.606 91.5069 323.188 91.5069H245.365C244.207 91.5069 243.097 91.0471 242.278 90.2285C241.46 89.4099 241 88.2996 241 87.1419V4.365C241 1.96515 242.944 0.00359255 245.369 0.00359255H254.828C257.228 0.00359255 259.189 1.94359 259.189 4.365V33.0303C259.254 34.0523 259.67 35.0203 260.369 35.7692C261.067 36.5181 262.004 37.0014 263.019 37.1366H270.096C272.241 36.939 274.027 35.193 274.145 33.0303V4.36141C274.145 1.96156 276.085 0 278.507 0H287.966C290.366 0 292.331 1.94 292.331 4.36141V32.7285C292.331 34.9703 293.976 36.8744 296.139 37.133H323.17L323.166 37.1366ZM310.711 68.4389V59.5077C310.711 57.1079 308.771 55.1427 306.349 55.1427H296.886C294.487 55.1427 292.521 57.0863 292.521 59.5077V68.4353C292.521 70.8351 294.465 72.7967 296.886 72.7967H306.346C308.746 72.7967 310.707 70.8567 310.707 68.4353L310.711 68.4389Z" fill="#FF6600"/>
<defs>
<clipPath id="clip0_33_49">
<rect width="151.949" height="140" fill="white" transform="translate(222 256)"/>
</clipPath>
</defs>
</svg>
