<svg width="16" height="20" viewBox="0 0 16 20" fill="none" xmlns="http://www.w3.org/2000/svg">
<path d="M8.70184 10.2455L15.3425 16.8861C15.8015 17.3451 15.8015 18.0873 15.3425 18.5414L14.239 19.6449C13.78 20.1039 13.0378 20.1039 12.5837 19.6449L7.87177 14.9428L3.16473 19.6498C2.70575 20.1088 1.96356 20.1088 1.50946 19.6498L0.401062 18.5463C-0.0579224 18.0873 -0.0579224 17.3451 0.401062 16.891L7.04169 10.2504C7.50067 9.7865 8.24286 9.7865 8.70184 10.2455ZM7.04169 0.870483L0.401062 7.51111C-0.0579224 7.97009 -0.0579224 8.71228 0.401062 9.16638L1.50458 10.2699C1.96356 10.7289 2.70575 10.7289 3.15985 10.2699L7.86688 5.56287L12.5739 10.2699C13.0329 10.7289 13.7751 10.7289 14.2292 10.2699L15.3327 9.16638C15.7917 8.7074 15.7917 7.96521 15.3327 7.51111L8.69208 0.870483C8.24286 0.411499 7.50067 0.411499 7.04169 0.870483Z" fill="#EA2845"/>
</svg>
