<svg width="16" height="20" viewBox="0 0 16 20" fill="none" xmlns="http://www.w3.org/2000/svg">
<path d="M6.98486 9.74853L0.344239 3.10791C-0.114745 2.64892 -0.114745 1.90674 0.344239 1.45263L1.44775 0.349119C1.90674 -0.109866 2.64893 -0.109866 3.10303 0.349119L7.81494 5.05127L12.522 0.344237C12.981 -0.114747 13.7231 -0.114747 14.1772 0.344237L15.2856 1.44775C15.7446 1.90674 15.7446 2.64892 15.2856 3.10303L8.64502 9.74365C8.18604 10.2075 7.44385 10.2075 6.98486 9.74853ZM8.64502 19.1235L15.2856 12.4829C15.7446 12.0239 15.7446 11.2817 15.2856 10.8276L14.1821 9.72412C13.7231 9.26514 12.981 9.26514 12.5269 9.72412L7.81982 14.4312L3.11279 9.72412C2.65381 9.26514 1.91162 9.26514 1.45752 9.72412L0.354005 10.8276C-0.104979 11.2866 -0.104979 12.0288 0.354005 12.4829L6.99463 19.1235C7.44385 19.5825 8.18604 19.5825 8.64502 19.1235Z" fill="#2496ED"/>
</svg>
