<svg width="23" height="15" viewBox="0 0 23 15" fill="none" xmlns="http://www.w3.org/2000/svg">
<path d="M20.875 9.84375H2.125C1.26221 9.84375 0.5625 10.5435 0.5625 11.4062V12.9688C0.5625 13.8315 1.26221 14.5312 2.125 14.5312H20.875C21.7378 14.5312 22.4375 13.8315 22.4375 12.9688V11.4062C22.4375 10.5435 21.7378 9.84375 20.875 9.84375ZM20.875 0.46875H2.125C1.26221 0.46875 0.5625 1.16846 0.5625 2.03125V3.59375C0.5625 4.45654 1.26221 5.15625 2.125 5.15625H20.875C21.7378 5.15625 22.4375 4.45654 22.4375 3.59375V2.03125C22.4375 1.16846 21.7378 0.46875 20.875 0.46875Z" fill="#FF9900"/>
</svg>
