<svg width="26" height="26" viewBox="0 0 26 26" fill="none" xmlns="http://www.w3.org/2000/svg">
<g clip-path="url(#clip0_40_2)">
<path d="M12.9007 25.8463C14.6253 25.8463 16.0242 24.4474 16.0242 22.7213H9.77713C9.77713 24.4474 11.1761 25.8463 12.9007 25.8463ZM23.4178 18.5362C22.4744 17.5226 20.7093 15.9977 20.7093 11.0025C20.7093 7.20859 18.0491 4.17148 14.4622 3.42636V2.40878C14.4622 1.54599 13.763 0.846283 12.9007 0.846283C12.0384 0.846283 11.3391 1.54599 11.3391 2.40878V3.42636C7.75223 4.17148 5.09208 7.20859 5.09208 11.0025C5.09208 15.9977 3.32694 17.5226 2.38358 18.5362C2.09061 18.8512 1.96073 19.2276 1.96317 19.5963C1.96854 20.3971 2.59696 21.1588 3.53055 21.1588H22.2708C23.2044 21.1588 23.8333 20.3971 23.8382 19.5963C23.8406 19.2276 23.7107 18.8507 23.4178 18.5362Z" fill="black"/>
</g>
<defs>
<clipPath id="clip0_40_2">
<rect width="25" height="25" fill="white" transform="translate(0.400635 0.846283)"/>
</clipPath>
</defs>
</svg>
