
<svg width="471" height="100" viewBox="0 0 471 100" fill="none" xmlns="http://www.w3.org/2000/svg">
<rect width="100" height="100" rx="10" fill="#6473FF"/>
<rect x="16" y="16" width="51" height="20" fill="white"/>
<rect x="16" y="64" width="51" height="20" fill="white"/>
<rect x="33" y="40" width="51" height="20" fill="white"/>
<path d="M159.344 25.192V33.78H145.208V78.24H134.568V33.78H120.432V25.192H159.344Z" fill="#333333"/>
<path d="M164.371 57.036C164.371 52.78 165.207 49.0053 166.879 45.712C168.602 42.4187 170.907 39.8853 173.795 38.112C176.734 36.3387 180.002 35.452 183.599 35.452C186.741 35.452 189.477 36.0853 191.807 37.352C194.189 38.6187 196.089 40.2147 197.507 42.14V36.136H208.223V78.24H197.507V72.084C196.139 74.06 194.239 75.7067 191.807 77.024C189.426 78.2907 186.665 78.924 183.523 78.924C179.977 78.924 176.734 78.012 173.795 76.188C170.907 74.364 168.602 71.8053 166.879 68.512C165.207 65.168 164.371 61.3427 164.371 57.036ZM197.507 57.188C197.507 54.604 197.001 52.4 195.987 50.576C194.974 48.7013 193.606 47.2827 191.883 46.32C190.161 45.3067 188.311 44.8 186.335 44.8C184.359 44.8 182.535 45.2813 180.863 46.244C179.191 47.2067 177.823 48.6253 176.759 50.5C175.746 52.324 175.239 54.5027 175.239 57.036C175.239 59.5693 175.746 61.7987 176.759 63.724C177.823 65.5987 179.191 67.0427 180.863 68.056C182.586 69.0693 184.41 69.576 186.335 69.576C188.311 69.576 190.161 69.0947 191.883 68.132C193.606 67.1187 194.974 65.7 195.987 63.876C197.001 62.0013 197.507 59.772 197.507 57.188Z" fill="#333333"/>
<path d="M234.727 78.924C231.282 78.924 228.191 78.316 225.455 77.1C222.719 75.8333 220.54 74.136 218.919 72.008C217.348 69.88 216.487 67.524 216.335 64.94H227.051C227.254 66.5613 228.039 67.904 229.407 68.968C230.826 70.032 232.574 70.564 234.651 70.564C236.678 70.564 238.248 70.1587 239.363 69.348C240.528 68.5373 241.111 67.4987 241.111 66.232C241.111 64.864 240.402 63.8507 238.983 63.192C237.615 62.4827 235.411 61.7227 232.371 60.912C229.23 60.152 226.646 59.3667 224.619 58.556C222.643 57.7453 220.92 56.504 219.451 54.832C218.032 53.16 217.323 50.9053 217.323 48.068C217.323 45.7373 217.982 43.6093 219.299 41.684C220.667 39.7587 222.592 38.2387 225.075 37.124C227.608 36.0093 230.572 35.452 233.967 35.452C238.983 35.452 242.986 36.7187 245.975 39.252C248.964 41.7347 250.611 45.104 250.915 49.36H240.731C240.579 47.688 239.87 46.3707 238.603 45.408C237.387 44.3947 235.74 43.888 233.663 43.888C231.738 43.888 230.243 44.2427 229.179 44.952C228.166 45.6613 227.659 46.6493 227.659 47.916C227.659 49.3347 228.368 50.424 229.787 51.184C231.206 51.8933 233.41 52.628 236.399 53.388C239.439 54.148 241.947 54.9333 243.923 55.744C245.899 56.5547 247.596 57.8213 249.015 59.544C250.484 61.216 251.244 63.4453 251.295 66.232C251.295 68.664 250.611 70.8427 249.243 72.768C247.926 74.6933 246 76.2133 243.467 77.328C240.984 78.392 238.071 78.924 234.727 78.924Z" fill="#333333"/>
<path d="M284.957 78.24L270.669 60.304V78.24H260.029V22H270.669V53.996L284.805 36.136H298.637L280.093 57.264L298.789 78.24H284.957Z" fill="#333333"/>
<path d="M349.784 78.24H339.144L315.052 41.836V78.24H304.412V25.116H315.052L339.144 61.596V25.116H349.784V78.24Z" fill="#333333"/>
<path d="M399.439 56.276C399.439 57.796 399.337 59.164 399.135 60.38H368.355C368.608 63.42 369.672 65.8013 371.547 67.524C373.421 69.2467 375.727 70.108 378.463 70.108C382.415 70.108 385.227 68.4107 386.899 65.016H398.375C397.159 69.0693 394.828 72.4133 391.383 75.048C387.937 77.632 383.707 78.924 378.691 78.924C374.637 78.924 370.989 78.0373 367.747 76.264C364.555 74.44 362.047 71.8813 360.223 68.588C358.449 65.2947 357.563 61.4947 357.563 57.188C357.563 52.8307 358.449 49.0053 360.223 45.712C361.996 42.4187 364.479 39.8853 367.671 38.112C370.863 36.3387 374.536 35.452 378.691 35.452C382.693 35.452 386.265 36.3133 389.407 38.036C392.599 39.7587 395.056 42.216 396.779 45.408C398.552 48.5493 399.439 52.172 399.439 56.276ZM388.419 53.236C388.368 50.5 387.38 48.3213 385.455 46.7C383.529 45.028 381.173 44.192 378.387 44.192C375.752 44.192 373.523 45.0027 371.699 46.624C369.925 48.1947 368.836 50.3987 368.431 53.236H388.419Z" fill="#333333"/>
<path d="M423.317 78.924C419.872 78.924 416.781 78.316 414.045 77.1C411.309 75.8333 409.13 74.136 407.509 72.008C405.938 69.88 405.077 67.524 404.925 64.94H415.641C415.844 66.5613 416.629 67.904 417.997 68.968C419.416 70.032 421.164 70.564 423.241 70.564C425.268 70.564 426.838 70.1587 427.953 69.348C429.118 68.5373 429.701 67.4987 429.701 66.232C429.701 64.864 428.992 63.8507 427.573 63.192C426.205 62.4827 424.001 61.7227 420.961 60.912C417.82 60.152 415.236 59.3667 413.209 58.556C411.233 57.7453 409.51 56.504 408.041 54.832C406.622 53.16 405.913 50.9053 405.913 48.068C405.913 45.7373 406.572 43.6093 407.889 41.684C409.257 39.7587 411.182 38.2387 413.665 37.124C416.198 36.0093 419.162 35.452 422.557 35.452C427.573 35.452 431.576 36.7187 434.565 39.252C437.554 41.7347 439.201 45.104 439.505 49.36H429.321C429.169 47.688 428.46 46.3707 427.193 45.408C425.977 44.3947 424.33 43.888 422.253 43.888C420.328 43.888 418.833 44.2427 417.769 44.952C416.756 45.6613 416.249 46.6493 416.249 47.916C416.249 49.3347 416.958 50.424 418.377 51.184C419.796 51.8933 422 52.628 424.989 53.388C428.029 54.148 430.537 54.9333 432.513 55.744C434.489 56.5547 436.186 57.8213 437.605 59.544C439.074 61.216 439.834 63.4453 439.885 66.232C439.885 68.664 439.201 70.8427 437.833 72.768C436.516 74.6933 434.59 76.2133 432.057 77.328C429.574 78.392 426.661 78.924 423.317 78.924Z" fill="#333333"/>
<path d="M461.007 44.876V65.244C461.007 66.6627 461.336 67.7013 461.995 68.36C462.704 68.968 463.87 69.272 465.491 69.272H470.431V78.24H463.743C454.775 78.24 450.291 73.8827 450.291 65.168V44.876H445.275V36.136H450.291V25.724H461.007V36.136H470.431V44.876H461.007Z" fill="#333333"/>
</svg>
