<svg width="100" height="100" viewBox="0 0 100 100" fill="none" xmlns="http://www.w3.org/2000/svg">
<rect width="100" height="100" fill="#EFEF25"/>
<rect x="10" y="10" width="80" height="80" fill="#252F3E"/>
<g clip-path="url(#clip0_51_8)">
<path d="M46.4037 72.3563L41.0662 70.8075C40.5062 70.65 40.1912 70.0638 40.3487 69.5038L52.2925 28.3613C52.45 27.8013 53.0362 27.4863 53.5962 27.6438L58.9337 29.1925C59.4937 29.35 59.8087 29.9363 59.6512 30.4963L47.7075 71.6388C47.5412 72.1988 46.9637 72.5225 46.4037 72.3563ZM36.4287 62.5388L40.235 58.4788C40.6375 58.05 40.6112 57.3675 40.165 56.9738L32.2375 50L40.165 43.0263C40.6112 42.6325 40.6462 41.95 40.235 41.5213L36.4287 37.4613C36.035 37.0413 35.37 37.015 34.9412 37.4175L22.3325 49.23C21.8862 49.6413 21.8862 50.35 22.3325 50.7613L34.9412 62.5825C35.37 62.985 36.035 62.9675 36.4287 62.5388ZM65.0587 62.5913L77.6675 50.77C78.1137 50.3588 78.1137 49.65 77.6675 49.2388L65.0587 37.4088C64.6387 37.015 63.9737 37.0325 63.5712 37.4525L59.765 41.5125C59.3625 41.9413 59.3887 42.6238 59.835 43.0175L67.7625 50L59.835 56.9738C59.3887 57.3675 59.3537 58.05 59.765 58.4788L63.5712 62.5388C63.965 62.9675 64.63 62.985 65.0587 62.5913Z" fill="white"/>
</g>
<defs>
<clipPath id="clip0_51_8">
<rect width="56" height="56" fill="white" transform="translate(22 22)"/>
</clipPath>
</defs>
</svg>
